<?xml version="1.0" encoding="utf-8" standalone="no"?>
<!DOCTYPE svg PUBLIC "-//W3C//DTD SVG 1.1//EN"
  "http://www.w3.org/Graphics/SVG/1.1/DTD/svg11.dtd">
<svg xmlns:xlink="http://www.w3.org/1999/xlink" width="567.726292pt" height="316.942312pt" viewBox="0 0 567.726292 316.942312" xmlns="http://www.w3.org/2000/svg" version="1.1">
 <metadata>
  <rdf:RDF xmlns:dc="http://purl.org/dc/elements/1.1/" xmlns:cc="http://creativecommons.org/ns#" xmlns:rdf="http://www.w3.org/1999/02/22-rdf-syntax-ns#">
   <cc:Work>
    <dc:type rdf:resource="http://purl.org/dc/dcmitype/StillImage"/>
    <dc:date>2026-05-10T21:57:12.722257</dc:date>
    <dc:format>image/svg+xml</dc:format>
    <dc:creator>
     <cc:Agent>
      <dc:title>Matplotlib v3.10.9, https://matplotlib.org/</dc:title>
     </cc:Agent>
    </dc:creator>
   </cc:Work>
  </rdf:RDF>
 </metadata>
 <defs>
  <style type="text/css">*{stroke-linejoin: round; stroke-linecap: butt}</style>
 </defs>
 <g id="figure_1">
  <g id="patch_1">
   <path d="M 0 316.942312 
L 567.726292 316.942312 
L 567.726292 0 
L 0 0 
z
" style="fill: #ffffff"/>
  </g>
  <g id="axes_1">
   <g id="patch_2">
    <path d="M 44.307656 282.44 
L 560.526292 282.44 
L 560.526292 7.2 
L 44.307656 7.2 
z
" style="fill: #ffffff"/>
   </g>
   <g id="matplotlib.axis_1">
    <g id="xtick_1">
     <g id="line2d_1">
      <defs>
       <path id="mfacbdd476f" d="M 0 0 
L 0 3.5 
" style="stroke: #000000; stroke-width: 0.8"/>
      </defs>
      <g>
       <use xlink:href="#mfacbdd476f" x="113.187269" y="282.44" style="stroke: #000000; stroke-width: 0.8"/>
      </g>
     </g>
     <g id="text_1">
      <!-- L3 -->
      <g transform="translate(108.239378 296.634375) scale(0.09 -0.09)">
       <defs>
        <path id="MicrosoftYaHei-4c" d="M 3178 0 
L 625 0 
L 625 4841 
L 1250 4841 
L 1250 553 
L 3178 553 
L 3178 0 
z
" transform="scale(0.015625)"/>
        <path id="MicrosoftYaHei-33" d="M 447 809 
Q 944 425 1569 425 
Q 2069 425 2361 670 
Q 2653 916 2653 1328 
Q 2653 2247 1338 2247 
L 934 2247 
L 934 2753 
L 1319 2753 
Q 2484 2753 2484 3616 
Q 2484 4413 1594 4413 
Q 1084 4413 634 4069 
L 634 4647 
Q 1109 4922 1744 4922 
Q 2363 4922 2738 4598 
Q 3113 4275 3113 3759 
Q 3113 2809 2144 2538 
L 2144 2525 
Q 2669 2469 2973 2155 
Q 3278 1841 3278 1372 
Q 3278 719 2808 319 
Q 2338 -81 1556 -81 
Q 869 -81 447 175 
L 447 809 
z
" transform="scale(0.015625)"/>
       </defs>
       <use xlink:href="#MicrosoftYaHei-4c"/>
       <use xlink:href="#MicrosoftYaHei-33" transform="translate(51.318359 0)"/>
      </g>
      <!-- (K=1 s=2) -->
      <g transform="translate(91.955706 307.504969) scale(0.09 -0.09)">
       <defs>
        <path id="MicrosoftYaHei-28" d="M 1531 -1100 
Q 478 100 478 1847 
Q 478 3594 1531 4841 
L 2072 4841 
Q 1016 3544 1016 1853 
Q 1016 166 2066 -1100 
L 1531 -1100 
z
" transform="scale(0.015625)"/>
        <path id="MicrosoftYaHei-4b" d="M 4069 0 
L 3213 0 
L 1394 2200 
Q 1300 2316 1266 2381 
L 1250 2381 
L 1250 0 
L 625 0 
L 625 4841 
L 1250 4841 
L 1250 2563 
L 1266 2563 
Q 1319 2647 1394 2741 
L 3150 4841 
L 3922 4841 
L 1891 2519 
L 4069 0 
z
" transform="scale(0.015625)"/>
        <path id="MicrosoftYaHei-3d" d="M 3972 2497 
L 788 2497 
L 788 2969 
L 3972 2969 
L 3972 2497 
z
M 3972 1053 
L 788 1053 
L 788 1525 
L 3972 1525 
L 3972 1053 
z
" transform="scale(0.015625)"/>
        <path id="MicrosoftYaHei-31" d="M 1781 0 
L 1781 4141 
Q 1638 3997 1295 3819 
Q 953 3641 663 3569 
L 663 4169 
Q 1047 4275 1484 4508 
Q 1922 4741 2156 4947 
L 2388 4947 
L 2388 0 
L 1781 0 
z
" transform="scale(0.015625)"/>
        <path id="MicrosoftYaHei-20" transform="scale(0.015625)"/>
        <path id="MicrosoftYaHei-73" d="M 353 747 
Q 816 413 1350 413 
Q 2066 413 2066 881 
Q 2066 1081 1909 1211 
Q 1753 1341 1275 1519 
Q 700 1750 528 1976 
Q 356 2203 356 2525 
Q 356 2984 745 3261 
Q 1134 3538 1703 3538 
Q 2144 3538 2522 3384 
L 2522 2794 
Q 2134 3044 1644 3044 
Q 1350 3044 1165 2916 
Q 981 2788 981 2578 
Q 981 2372 1114 2256 
Q 1247 2141 1703 1959 
Q 2281 1744 2484 1512 
Q 2688 1281 2688 941 
Q 2688 466 2298 192 
Q 1909 -81 1291 -81 
Q 753 -81 353 122 
L 353 747 
z
" transform="scale(0.015625)"/>
        <path id="MicrosoftYaHei-32" d="M 2666 3572 
Q 2666 3963 2419 4186 
Q 2172 4409 1747 4409 
Q 1447 4409 1140 4256 
Q 834 4103 569 3819 
L 569 4413 
Q 806 4659 1107 4790 
Q 1409 4922 1816 4922 
Q 2472 4922 2872 4570 
Q 3272 4219 3272 3619 
Q 3272 3084 3026 2693 
Q 2781 2303 2188 1894 
Q 1581 1475 1376 1294 
Q 1172 1113 1090 947 
Q 1009 781 1009 544 
L 3416 544 
L 3416 0 
L 372 0 
L 372 241 
Q 372 659 486 951 
Q 600 1244 862 1520 
Q 1125 1797 1681 2184 
Q 2250 2584 2458 2886 
Q 2666 3188 2666 3572 
z
" transform="scale(0.015625)"/>
        <path id="MicrosoftYaHei-29" d="M 78 -1100 
Q 1131 163 1131 1853 
Q 1131 3547 72 4841 
L 616 4841 
Q 1672 3603 1672 1847 
Q 1672 91 616 -1100 
L 78 -1100 
z
" transform="scale(0.015625)"/>
       </defs>
       <use xlink:href="#MicrosoftYaHei-28"/>
       <use xlink:href="#MicrosoftYaHei-4b" transform="translate(33.398438 0)"/>
       <use xlink:href="#MicrosoftYaHei-3d" transform="translate(96.875 0)"/>
       <use xlink:href="#MicrosoftYaHei-31" transform="translate(171.044922 0)"/>
       <use xlink:href="#MicrosoftYaHei-20" transform="translate(229.6875 0)"/>
       <use xlink:href="#MicrosoftYaHei-73" transform="translate(259.277344 0)"/>
       <use xlink:href="#MicrosoftYaHei-3d" transform="translate(305.566406 0)"/>
       <use xlink:href="#MicrosoftYaHei-32" transform="translate(379.736328 0)"/>
       <use xlink:href="#MicrosoftYaHei-29" transform="translate(438.378906 0)"/>
      </g>
     </g>
    </g>
    <g id="xtick_2">
     <g id="line2d_2">
      <g>
       <use xlink:href="#mfacbdd476f" x="239.340406" y="282.44" style="stroke: #000000; stroke-width: 0.8"/>
      </g>
     </g>
     <g id="text_2">
      <!-- L6 -->
      <g transform="translate(234.392515 296.634375) scale(0.09 -0.09)">
       <defs>
        <path id="MicrosoftYaHei-36" d="M 3181 4219 
Q 2803 4413 2391 4413 
Q 1763 4413 1381 3866 
Q 1000 3319 994 2372 
L 1009 2372 
Q 1353 3038 2106 3038 
Q 2734 3038 3109 2628 
Q 3484 2219 3484 1541 
Q 3484 831 3051 375 
Q 2619 -81 1947 -81 
Q 1209 -81 789 495 
Q 369 1072 369 2131 
Q 369 3413 920 4167 
Q 1472 4922 2372 4922 
Q 2888 4922 3181 4781 
L 3181 4219 
z
M 1031 1584 
Q 1031 1106 1286 765 
Q 1541 425 1963 425 
Q 2363 425 2613 719 
Q 2863 1013 2863 1475 
Q 2863 1975 2627 2253 
Q 2391 2531 1956 2531 
Q 1544 2531 1287 2250 
Q 1031 1969 1031 1584 
z
" transform="scale(0.015625)"/>
       </defs>
       <use xlink:href="#MicrosoftYaHei-4c"/>
       <use xlink:href="#MicrosoftYaHei-36" transform="translate(51.318359 0)"/>
      </g>
      <!-- (K=1 s=2) -->
      <g transform="translate(218.108843 307.504969) scale(0.09 -0.09)">
       <use xlink:href="#MicrosoftYaHei-28"/>
       <use xlink:href="#MicrosoftYaHei-4b" transform="translate(33.398438 0)"/>
       <use xlink:href="#MicrosoftYaHei-3d" transform="translate(96.875 0)"/>
       <use xlink:href="#MicrosoftYaHei-31" transform="translate(171.044922 0)"/>
       <use xlink:href="#MicrosoftYaHei-20" transform="translate(229.6875 0)"/>
       <use xlink:href="#MicrosoftYaHei-73" transform="translate(259.277344 0)"/>
       <use xlink:href="#MicrosoftYaHei-3d" transform="translate(305.566406 0)"/>
       <use xlink:href="#MicrosoftYaHei-32" transform="translate(379.736328 0)"/>
       <use xlink:href="#MicrosoftYaHei-29" transform="translate(438.378906 0)"/>
      </g>
     </g>
    </g>
    <g id="xtick_3">
     <g id="line2d_3">
      <g>
       <use xlink:href="#mfacbdd476f" x="365.493543" y="282.44" style="stroke: #000000; stroke-width: 0.8"/>
      </g>
     </g>
     <g id="text_3">
      <!-- L9 -->
      <g transform="translate(360.545652 296.634375) scale(0.09 -0.09)">
       <defs>
        <path id="MicrosoftYaHei-39" d="M 578 656 
Q 978 425 1441 425 
Q 2091 425 2448 937 
Q 2806 1450 2806 2394 
Q 2800 2388 2794 2394 
Q 2475 1788 1722 1788 
Q 1113 1788 713 2206 
Q 313 2625 313 3294 
Q 313 4006 750 4464 
Q 1188 4922 1884 4922 
Q 2606 4922 3012 4355 
Q 3419 3788 3419 2703 
Q 3419 1363 2894 641 
Q 2369 -81 1441 -81 
Q 931 -81 578 84 
L 578 656 
z
M 931 3372 
Q 931 2884 1181 2598 
Q 1431 2313 1872 2313 
Q 2253 2313 2512 2573 
Q 2772 2834 2772 3206 
Q 2772 3728 2514 4070 
Q 2256 4413 1834 4413 
Q 1444 4413 1187 4116 
Q 931 3819 931 3372 
z
" transform="scale(0.015625)"/>
       </defs>
       <use xlink:href="#MicrosoftYaHei-4c"/>
       <use xlink:href="#MicrosoftYaHei-39" transform="translate(51.318359 0)"/>
      </g>
      <!-- (K=1 s=2) -->
      <g transform="translate(344.26198 307.504969) scale(0.09 -0.09)">
       <use xlink:href="#MicrosoftYaHei-28"/>
       <use xlink:href="#MicrosoftYaHei-4b" transform="translate(33.398438 0)"/>
       <use xlink:href="#MicrosoftYaHei-3d" transform="translate(96.875 0)"/>
       <use xlink:href="#MicrosoftYaHei-31" transform="translate(171.044922 0)"/>
       <use xlink:href="#MicrosoftYaHei-20" transform="translate(229.6875 0)"/>
       <use xlink:href="#MicrosoftYaHei-73" transform="translate(259.277344 0)"/>
       <use xlink:href="#MicrosoftYaHei-3d" transform="translate(305.566406 0)"/>
       <use xlink:href="#MicrosoftYaHei-32" transform="translate(379.736328 0)"/>
       <use xlink:href="#MicrosoftYaHei-29" transform="translate(438.378906 0)"/>
      </g>
     </g>
    </g>
    <g id="xtick_4">
     <g id="line2d_4">
      <g>
       <use xlink:href="#mfacbdd476f" x="491.646679" y="282.44" style="stroke: #000000; stroke-width: 0.8"/>
      </g>
     </g>
     <g id="text_4">
      <!-- 整网 -->
      <g transform="translate(482.646679 296.634375) scale(0.09 -0.09)">
       <defs>
        <path id="MicrosoftYaHei-6574" d="M 138 -234 
L 1263 -234 
L 1263 891 
L 1713 891 
L 1713 -234 
L 3025 -234 
L 3025 1178 
L 550 1178 
L 550 1578 
L 5800 1578 
L 5800 1178 
L 3475 1178 
L 3475 697 
L 5525 697 
L 5525 297 
L 3475 297 
L 3475 -234 
L 6256 -234 
L 6256 -634 
L 138 -634 
L 138 -234 
z
M 25 2003 
Q 825 2334 1481 2916 
L 913 2916 
L 913 2759 
L 506 2759 
L 506 4109 
L 1650 4109 
L 1650 4491 
L 250 4491 
L 250 4866 
L 1650 4866 
L 1650 5291 
L 2069 5291 
L 2069 4866 
L 3425 4866 
L 3425 4491 
L 2069 4491 
L 2069 4109 
L 3213 4109 
L 3213 2759 
L 2806 2759 
L 2806 2916 
L 2069 2916 
L 2069 2541 
L 2225 2747 
Q 2781 2484 3288 2216 
L 3075 1872 
Q 2550 2184 2069 2397 
L 2069 1722 
L 1650 1722 
L 1650 2647 
Q 1075 2078 288 1647 
Q 175 1803 25 2003 
z
M 3363 2078 
Q 4050 2341 4519 2716 
Q 4144 3134 3938 3716 
Q 3788 3447 3631 3197 
L 3256 3459 
Q 3850 4253 4163 5322 
L 4600 5191 
Q 4481 4872 4356 4572 
L 6263 4572 
L 6263 4172 
L 5850 4172 
Q 5644 3316 5181 2741 
Q 5638 2428 6325 2247 
Q 6169 2047 6013 1778 
Q 5319 2034 4844 2403 
Q 4363 1984 3650 1678 
Q 3525 1859 3363 2078 
z
M 5400 4172 
L 4219 4172 
Q 4394 3484 4838 3022 
Q 5244 3503 5400 4172 
z
M 2806 3266 
L 2806 3759 
L 2069 3759 
L 2069 3266 
L 2806 3266 
z
M 913 3266 
L 1650 3266 
L 1650 3759 
L 913 3759 
L 913 3266 
z
" transform="scale(0.015625)"/>
        <path id="MicrosoftYaHei-7f51" d="M 1075 3641 
L 1444 3834 
Q 1816 3244 2184 2628 
Q 2488 3281 2706 3928 
L 3131 3772 
Q 2822 2931 2450 2175 
Q 2809 1563 3163 922 
L 2738 697 
Q 2478 1191 2203 1691 
Q 1819 969 1375 328 
L 1000 544 
L 1000 -759 
L 531 -759 
L 531 4953 
L 5856 4953 
L 5856 -59 
Q 5856 -728 5138 -728 
Q 4738 -728 4181 -716 
Q 4150 -516 4094 -228 
Q 4619 -272 4988 -272 
Q 5388 -272 5388 72 
L 5388 4503 
L 1000 4503 
L 1000 572 
Q 1538 1363 1947 2150 
Q 1531 2891 1075 3641 
z
M 3156 3341 
L 3519 3553 
Q 3831 3047 4166 2481 
Q 4525 3197 4775 3891 
L 5200 3728 
Q 4847 2838 4428 2028 
Q 4822 1353 5244 597 
L 4825 359 
Q 4513 953 4175 1559 
Q 3788 866 3350 241 
L 2969 484 
Q 3506 1263 3919 2016 
Q 3553 2672 3156 3341 
z
" transform="scale(0.015625)"/>
       </defs>
       <use xlink:href="#MicrosoftYaHei-6574"/>
       <use xlink:href="#MicrosoftYaHei-7f51" transform="translate(100 0)"/>
      </g>
     </g>
    </g>
   </g>
   <g id="matplotlib.axis_2">
    <g id="ytick_1">
     <g id="line2d_5">
      <path d="M 44.307656 282.44 
L 560.526292 282.44 
" clip-path="url(#p7815477060)" style="fill: none; stroke-dasharray: 0.5,0.825; stroke-dashoffset: 0; stroke: #b0b0b0; stroke-opacity: 0.5; stroke-width: 0.5"/>
     </g>
     <g id="line2d_6">
      <defs>
       <path id="me09fe26bb1" d="M 0 0 
L -3.5 0 
" style="stroke: #000000; stroke-width: 0.8"/>
      </defs>
      <g>
       <use xlink:href="#me09fe26bb1" x="44.307656" y="282.44" style="stroke: #000000; stroke-width: 0.8"/>
      </g>
     </g>
     <g id="text_5">
      <!-- $\mathdefault{10^{3}}$ -->
      <g transform="translate(22.727656 286.037187) scale(0.09 -0.09)">
       <defs>
        <path id="MicrosoftYaHei-30" d="M 284 2325 
Q 284 3606 709 4264 
Q 1134 4922 1941 4922 
Q 3478 4922 3478 2441 
Q 3478 1216 3045 567 
Q 2613 -81 1831 -81 
Q 1094 -81 689 534 
Q 284 1150 284 2325 
z
M 909 2353 
Q 909 425 1888 425 
Q 2850 425 2850 2384 
Q 2850 4413 1906 4413 
Q 909 4413 909 2353 
z
" transform="scale(0.015625)"/>
       </defs>
       <use xlink:href="#MicrosoftYaHei-31" transform="translate(0 0.365625)"/>
       <use xlink:href="#MicrosoftYaHei-30" transform="translate(58.642578 0.365625)"/>
       <use xlink:href="#MicrosoftYaHei-33" transform="translate(118.230156 38.165625) scale(0.7)"/>
      </g>
     </g>
    </g>
    <g id="ytick_2">
     <g id="line2d_7">
      <path d="M 44.307656 177.031346 
L 560.526292 177.031346 
" clip-path="url(#p7815477060)" style="fill: none; stroke-dasharray: 0.5,0.825; stroke-dashoffset: 0; stroke: #b0b0b0; stroke-opacity: 0.5; stroke-width: 0.5"/>
     </g>
     <g id="line2d_8">
      <g>
       <use xlink:href="#me09fe26bb1" x="44.307656" y="177.031346" style="stroke: #000000; stroke-width: 0.8"/>
      </g>
     </g>
     <g id="text_6">
      <!-- $\mathdefault{10^{4}}$ -->
      <g transform="translate(22.727656 180.628533) scale(0.09 -0.09)">
       <defs>
        <path id="MicrosoftYaHei-34" d="M 2906 4841 
L 2906 1644 
L 3631 1644 
L 3631 1138 
L 2906 1138 
L 2906 0 
L 2313 0 
L 2313 1138 
L 53 1138 
L 53 1616 
Q 656 2294 1265 3178 
Q 1875 4063 2272 4841 
L 2906 4841 
z
M 741 1644 
L 2313 1644 
L 2313 3950 
Q 1988 3366 1616 2817 
Q 1244 2269 741 1644 
z
" transform="scale(0.015625)"/>
       </defs>
       <use xlink:href="#MicrosoftYaHei-31" transform="translate(0 0.251563)"/>
       <use xlink:href="#MicrosoftYaHei-30" transform="translate(58.642578 0.251563)"/>
       <use xlink:href="#MicrosoftYaHei-34" transform="translate(118.230156 38.051563) scale(0.7)"/>
      </g>
     </g>
    </g>
    <g id="ytick_3">
     <g id="line2d_9">
      <path d="M 44.307656 71.622691 
L 560.526292 71.622691 
" clip-path="url(#p7815477060)" style="fill: none; stroke-dasharray: 0.5,0.825; stroke-dashoffset: 0; stroke: #b0b0b0; stroke-opacity: 0.5; stroke-width: 0.5"/>
     </g>
     <g id="line2d_10">
      <g>
       <use xlink:href="#me09fe26bb1" x="44.307656" y="71.622691" style="stroke: #000000; stroke-width: 0.8"/>
      </g>
     </g>
     <g id="text_7">
      <!-- $\mathdefault{10^{5}}$ -->
      <g transform="translate(22.727656 75.219879) scale(0.09 -0.09)">
       <defs>
        <path id="MicrosoftYaHei-35" d="M 3294 1494 
Q 3294 784 2823 350 
Q 2353 -84 1559 -84 
Q 878 -84 544 119 
L 544 744 
Q 1034 425 1544 425 
Q 2050 425 2361 704 
Q 2672 984 2672 1447 
Q 2672 1909 2348 2167 
Q 2025 2425 1434 2425 
Q 978 2425 613 2384 
L 791 4841 
L 3053 4841 
L 3053 4303 
L 1306 4303 
L 1206 2931 
L 1647 2950 
Q 2416 2950 2855 2567 
Q 3294 2184 3294 1494 
z
" transform="scale(0.015625)"/>
       </defs>
       <use xlink:href="#MicrosoftYaHei-31" transform="translate(0 0.251563)"/>
       <use xlink:href="#MicrosoftYaHei-30" transform="translate(58.642578 0.251563)"/>
       <use xlink:href="#MicrosoftYaHei-35" transform="translate(118.230156 38.051563) scale(0.7)"/>
      </g>
     </g>
    </g>
    <g id="ytick_4">
     <g id="line2d_11">
      <path d="M 44.307656 250.708833 
L 560.526292 250.708833 
" clip-path="url(#p7815477060)" style="fill: none; stroke-dasharray: 0.5,0.825; stroke-dashoffset: 0; stroke: #b0b0b0; stroke-opacity: 0.5; stroke-width: 0.5"/>
     </g>
     <g id="line2d_12">
      <defs>
       <path id="m77ea360186" d="M 0 0 
L -2 0 
" style="stroke: #000000; stroke-width: 0.6"/>
      </defs>
      <g>
       <use xlink:href="#m77ea360186" x="44.307656" y="250.708833" style="stroke: #000000; stroke-width: 0.6"/>
      </g>
     </g>
    </g>
    <g id="ytick_5">
     <g id="line2d_13">
      <path d="M 44.307656 232.147291 
L 560.526292 232.147291 
" clip-path="url(#p7815477060)" style="fill: none; stroke-dasharray: 0.5,0.825; stroke-dashoffset: 0; stroke: #b0b0b0; stroke-opacity: 0.5; stroke-width: 0.5"/>
     </g>
     <g id="line2d_14">
      <g>
       <use xlink:href="#m77ea360186" x="44.307656" y="232.147291" style="stroke: #000000; stroke-width: 0.6"/>
      </g>
     </g>
    </g>
    <g id="ytick_6">
     <g id="line2d_15">
      <path d="M 44.307656 218.977666 
L 560.526292 218.977666 
" clip-path="url(#p7815477060)" style="fill: none; stroke-dasharray: 0.5,0.825; stroke-dashoffset: 0; stroke: #b0b0b0; stroke-opacity: 0.5; stroke-width: 0.5"/>
     </g>
     <g id="line2d_16">
      <g>
       <use xlink:href="#m77ea360186" x="44.307656" y="218.977666" style="stroke: #000000; stroke-width: 0.6"/>
      </g>
     </g>
    </g>
    <g id="ytick_7">
     <g id="line2d_17">
      <path d="M 44.307656 208.762512 
L 560.526292 208.762512 
" clip-path="url(#p7815477060)" style="fill: none; stroke-dasharray: 0.5,0.825; stroke-dashoffset: 0; stroke: #b0b0b0; stroke-opacity: 0.5; stroke-width: 0.5"/>
     </g>
     <g id="line2d_18">
      <g>
       <use xlink:href="#m77ea360186" x="44.307656" y="208.762512" style="stroke: #000000; stroke-width: 0.6"/>
      </g>
     </g>
    </g>
    <g id="ytick_8">
     <g id="line2d_19">
      <path d="M 44.307656 200.416124 
L 560.526292 200.416124 
" clip-path="url(#p7815477060)" style="fill: none; stroke-dasharray: 0.5,0.825; stroke-dashoffset: 0; stroke: #b0b0b0; stroke-opacity: 0.5; stroke-width: 0.5"/>
     </g>
     <g id="line2d_20">
      <g>
       <use xlink:href="#m77ea360186" x="44.307656" y="200.416124" style="stroke: #000000; stroke-width: 0.6"/>
      </g>
     </g>
    </g>
    <g id="ytick_9">
     <g id="line2d_21">
      <path d="M 44.307656 193.359353 
L 560.526292 193.359353 
" clip-path="url(#p7815477060)" style="fill: none; stroke-dasharray: 0.5,0.825; stroke-dashoffset: 0; stroke: #b0b0b0; stroke-opacity: 0.5; stroke-width: 0.5"/>
     </g>
     <g id="line2d_22">
      <g>
       <use xlink:href="#m77ea360186" x="44.307656" y="193.359353" style="stroke: #000000; stroke-width: 0.6"/>
      </g>
     </g>
    </g>
    <g id="ytick_10">
     <g id="line2d_23">
      <path d="M 44.307656 187.2465 
L 560.526292 187.2465 
" clip-path="url(#p7815477060)" style="fill: none; stroke-dasharray: 0.5,0.825; stroke-dashoffset: 0; stroke: #b0b0b0; stroke-opacity: 0.5; stroke-width: 0.5"/>
     </g>
     <g id="line2d_24">
      <g>
       <use xlink:href="#m77ea360186" x="44.307656" y="187.2465" style="stroke: #000000; stroke-width: 0.6"/>
      </g>
     </g>
    </g>
    <g id="ytick_11">
     <g id="line2d_25">
      <path d="M 44.307656 181.854581 
L 560.526292 181.854581 
" clip-path="url(#p7815477060)" style="fill: none; stroke-dasharray: 0.5,0.825; stroke-dashoffset: 0; stroke: #b0b0b0; stroke-opacity: 0.5; stroke-width: 0.5"/>
     </g>
     <g id="line2d_26">
      <g>
       <use xlink:href="#m77ea360186" x="44.307656" y="181.854581" style="stroke: #000000; stroke-width: 0.6"/>
      </g>
     </g>
    </g>
    <g id="ytick_12">
     <g id="line2d_27">
      <path d="M 44.307656 145.300179 
L 560.526292 145.300179 
" clip-path="url(#p7815477060)" style="fill: none; stroke-dasharray: 0.5,0.825; stroke-dashoffset: 0; stroke: #b0b0b0; stroke-opacity: 0.5; stroke-width: 0.5"/>
     </g>
     <g id="line2d_28">
      <g>
       <use xlink:href="#m77ea360186" x="44.307656" y="145.300179" style="stroke: #000000; stroke-width: 0.6"/>
      </g>
     </g>
    </g>
    <g id="ytick_13">
     <g id="line2d_29">
      <path d="M 44.307656 126.738636 
L 560.526292 126.738636 
" clip-path="url(#p7815477060)" style="fill: none; stroke-dasharray: 0.5,0.825; stroke-dashoffset: 0; stroke: #b0b0b0; stroke-opacity: 0.5; stroke-width: 0.5"/>
     </g>
     <g id="line2d_30">
      <g>
       <use xlink:href="#m77ea360186" x="44.307656" y="126.738636" style="stroke: #000000; stroke-width: 0.6"/>
      </g>
     </g>
    </g>
    <g id="ytick_14">
     <g id="line2d_31">
      <path d="M 44.307656 113.569012 
L 560.526292 113.569012 
" clip-path="url(#p7815477060)" style="fill: none; stroke-dasharray: 0.5,0.825; stroke-dashoffset: 0; stroke: #b0b0b0; stroke-opacity: 0.5; stroke-width: 0.5"/>
     </g>
     <g id="line2d_32">
      <g>
       <use xlink:href="#m77ea360186" x="44.307656" y="113.569012" style="stroke: #000000; stroke-width: 0.6"/>
      </g>
     </g>
    </g>
    <g id="ytick_15">
     <g id="line2d_33">
      <path d="M 44.307656 103.353858 
L 560.526292 103.353858 
" clip-path="url(#p7815477060)" style="fill: none; stroke-dasharray: 0.5,0.825; stroke-dashoffset: 0; stroke: #b0b0b0; stroke-opacity: 0.5; stroke-width: 0.5"/>
     </g>
     <g id="line2d_34">
      <g>
       <use xlink:href="#m77ea360186" x="44.307656" y="103.353858" style="stroke: #000000; stroke-width: 0.6"/>
      </g>
     </g>
    </g>
    <g id="ytick_16">
     <g id="line2d_35">
      <path d="M 44.307656 95.007469 
L 560.526292 95.007469 
" clip-path="url(#p7815477060)" style="fill: none; stroke-dasharray: 0.5,0.825; stroke-dashoffset: 0; stroke: #b0b0b0; stroke-opacity: 0.5; stroke-width: 0.5"/>
     </g>
     <g id="line2d_36">
      <g>
       <use xlink:href="#m77ea360186" x="44.307656" y="95.007469" style="stroke: #000000; stroke-width: 0.6"/>
      </g>
     </g>
    </g>
    <g id="ytick_17">
     <g id="line2d_37">
      <path d="M 44.307656 87.950698 
L 560.526292 87.950698 
" clip-path="url(#p7815477060)" style="fill: none; stroke-dasharray: 0.5,0.825; stroke-dashoffset: 0; stroke: #b0b0b0; stroke-opacity: 0.5; stroke-width: 0.5"/>
     </g>
     <g id="line2d_38">
      <g>
       <use xlink:href="#m77ea360186" x="44.307656" y="87.950698" style="stroke: #000000; stroke-width: 0.6"/>
      </g>
     </g>
    </g>
    <g id="ytick_18">
     <g id="line2d_39">
      <path d="M 44.307656 81.837845 
L 560.526292 81.837845 
" clip-path="url(#p7815477060)" style="fill: none; stroke-dasharray: 0.5,0.825; stroke-dashoffset: 0; stroke: #b0b0b0; stroke-opacity: 0.5; stroke-width: 0.5"/>
     </g>
     <g id="line2d_40">
      <g>
       <use xlink:href="#m77ea360186" x="44.307656" y="81.837845" style="stroke: #000000; stroke-width: 0.6"/>
      </g>
     </g>
    </g>
    <g id="ytick_19">
     <g id="line2d_41">
      <path d="M 44.307656 76.445927 
L 560.526292 76.445927 
" clip-path="url(#p7815477060)" style="fill: none; stroke-dasharray: 0.5,0.825; stroke-dashoffset: 0; stroke: #b0b0b0; stroke-opacity: 0.5; stroke-width: 0.5"/>
     </g>
     <g id="line2d_42">
      <g>
       <use xlink:href="#m77ea360186" x="44.307656" y="76.445927" style="stroke: #000000; stroke-width: 0.6"/>
      </g>
     </g>
    </g>
    <g id="ytick_20">
     <g id="line2d_43">
      <path d="M 44.307656 39.891525 
L 560.526292 39.891525 
" clip-path="url(#p7815477060)" style="fill: none; stroke-dasharray: 0.5,0.825; stroke-dashoffset: 0; stroke: #b0b0b0; stroke-opacity: 0.5; stroke-width: 0.5"/>
     </g>
     <g id="line2d_44">
      <g>
       <use xlink:href="#m77ea360186" x="44.307656" y="39.891525" style="stroke: #000000; stroke-width: 0.6"/>
      </g>
     </g>
    </g>
    <g id="ytick_21">
     <g id="line2d_45">
      <path d="M 44.307656 21.329982 
L 560.526292 21.329982 
" clip-path="url(#p7815477060)" style="fill: none; stroke-dasharray: 0.5,0.825; stroke-dashoffset: 0; stroke: #b0b0b0; stroke-opacity: 0.5; stroke-width: 0.5"/>
     </g>
     <g id="line2d_46">
      <g>
       <use xlink:href="#m77ea360186" x="44.307656" y="21.329982" style="stroke: #000000; stroke-width: 0.6"/>
      </g>
     </g>
    </g>
    <g id="ytick_22">
     <g id="line2d_47">
      <path d="M 44.307656 8.160358 
L 560.526292 8.160358 
" clip-path="url(#p7815477060)" style="fill: none; stroke-dasharray: 0.5,0.825; stroke-dashoffset: 0; stroke: #b0b0b0; stroke-opacity: 0.5; stroke-width: 0.5"/>
     </g>
     <g id="line2d_48">
      <g>
       <use xlink:href="#m77ea360186" x="44.307656" y="8.160358" style="stroke: #000000; stroke-width: 0.6"/>
      </g>
     </g>
    </g>
    <g id="text_8">
     <!-- 整网周期数 -->
     <g transform="translate(15.993125 172.32) rotate(-90) scale(0.11 -0.11)">
      <defs>
       <path id="MicrosoftYaHei-5468" d="M 1175 2753 
Q 1175 1166 1038 572 
Q 888 -153 413 -822 
Q 231 -591 56 -403 
Q 450 197 575 803 
Q 675 1328 675 2634 
L 675 5059 
L 5981 5059 
L 5981 72 
Q 5981 -734 5206 -747 
Q 4763 -753 4219 -734 
Q 4194 -547 4119 -228 
Q 4725 -266 5050 -266 
Q 5494 -266 5494 153 
L 5494 4609 
L 1175 4609 
L 1175 2753 
z
M 1988 1897 
L 4663 1897 
L 4663 209 
L 2463 209 
L 2463 -191 
L 1988 -191 
L 1988 1897 
z
M 1475 2841 
L 3081 2841 
L 3081 3472 
L 1763 3472 
L 1763 3897 
L 3081 3897 
L 3081 4447 
L 3569 4447 
L 3569 3897 
L 4888 3897 
L 4888 3472 
L 3569 3472 
L 3569 2841 
L 5181 2841 
L 5181 2416 
L 1475 2416 
L 1475 2841 
z
M 4188 634 
L 4188 1472 
L 2463 1472 
L 2463 634 
L 4188 634 
z
" transform="scale(0.015625)"/>
       <path id="MicrosoftYaHei-671f" d="M 3769 5066 
L 5981 5066 
L 5981 -3 
Q 5981 -741 5281 -741 
Q 4931 -741 4594 -722 
Q 4569 -516 4519 -241 
Q 4975 -284 5175 -284 
Q 5519 -284 5519 59 
L 5519 1372 
L 4181 1372 
Q 4113 3 3350 -903 
Q 3181 -728 2975 -553 
Q 3481 28 3619 653 
Q 3769 1253 3769 2741 
L 3769 5066 
z
M 125 1141 
L 713 1141 
L 713 4028 
L 200 4028 
L 200 4453 
L 713 4453 
L 713 5216 
L 1175 5216 
L 1175 4453 
L 2475 4453 
L 2475 5241 
L 2938 5241 
L 2938 4453 
L 3444 4453 
L 3444 4028 
L 2938 4028 
L 2938 1141 
L 3438 1141 
L 3438 716 
L 125 716 
L 125 1141 
z
M 4209 1784 
L 5519 1784 
L 5519 3009 
L 4231 3009 
Q 4238 2203 4209 1784 
z
M 5519 4641 
L 4231 4641 
L 4231 3422 
L 5519 3422 
L 5519 4641 
z
M 1175 1141 
L 2475 1141 
L 2475 1841 
L 1175 1841 
L 1175 1141 
z
M 1175 2241 
L 2475 2241 
L 2475 2934 
L 1175 2934 
L 1175 2241 
z
M 1175 3334 
L 2475 3334 
L 2475 4028 
L 1175 4028 
L 1175 3334 
z
M 1175 597 
L 1556 297 
Q 925 -384 406 -847 
Q 275 -697 75 -516 
Q 669 -9 1175 597 
z
M 1994 303 
L 2294 609 
Q 2731 284 3119 -47 
L 2788 -403 
Q 2438 -53 1994 303 
z
" transform="scale(0.015625)"/>
       <path id="MicrosoftYaHei-6570" d="M 4175 5303 
L 4675 5228 
Q 4544 4622 4369 4097 
L 6281 4097 
L 6281 3672 
L 5888 3672 
Q 5731 1834 5088 753 
Q 5594 66 6375 -372 
Q 6175 -647 6038 -866 
Q 5275 -372 4769 309 
Q 4194 -403 3400 -928 
Q 3263 -747 3044 -534 
Q 3919 41 4463 772 
Q 3956 1647 3794 2791 
Q 3663 2559 3519 2359 
Q 3394 2541 3206 2759 
Q 3931 3803 4175 5303 
z
M 150 1697 
L 1100 1697 
Q 1238 1934 1369 2184 
L 1819 2041 
Q 1719 1866 1619 1697 
L 3150 1697 
L 3150 1291 
Q 2913 678 2431 216 
Q 2775 53 3131 -109 
L 2856 -541 
Q 2469 -322 2050 -103 
Q 1344 -609 269 -903 
Q 169 -703 56 -466 
Q 969 -259 1600 128 
Q 1063 403 475 691 
Q 675 978 863 1284 
L 150 1284 
L 150 1697 
z
M 219 3847 
L 1656 3847 
L 1656 5247 
L 2119 5247 
L 2119 3847 
L 3319 3847 
L 3319 3434 
L 2119 3434 
L 2119 3053 
L 2306 3266 
Q 2888 2841 3281 2516 
L 2981 2166 
Q 2638 2491 2119 2897 
L 2119 2184 
L 1656 2184 
L 1656 3059 
Q 1088 2466 331 2016 
Q 213 2197 63 2397 
Q 850 2822 1506 3434 
L 219 3434 
L 219 3847 
z
M 5388 3672 
L 4219 3672 
Q 4188 3591 4150 3516 
Q 4263 2191 4775 1247 
Q 5275 2159 5388 3672 
z
M 1088 834 
Q 1531 634 2000 416 
Q 2431 784 2675 1284 
L 1375 1284 
Q 1231 1053 1088 834 
z
M 3038 5091 
L 3425 4834 
Q 3081 4384 2738 4003 
Q 2594 4128 2400 4266 
Q 2725 4647 3038 5091 
z
M 381 4816 
L 738 5059 
Q 1019 4716 1319 4322 
L 931 4047 
Q 656 4453 381 4816 
z
" transform="scale(0.015625)"/>
      </defs>
      <use xlink:href="#MicrosoftYaHei-6574"/>
      <use xlink:href="#MicrosoftYaHei-7f51" transform="translate(100 0)"/>
      <use xlink:href="#MicrosoftYaHei-5468" transform="translate(200 0)"/>
      <use xlink:href="#MicrosoftYaHei-671f" transform="translate(300 0)"/>
      <use xlink:href="#MicrosoftYaHei-6570" transform="translate(400 0)"/>
     </g>
    </g>
   </g>
   <g id="patch_3">
    <path d="M 44.307656 282.44 
L 44.307656 7.2 
" style="fill: none; stroke: #000000; stroke-width: 0.8; stroke-linejoin: miter; stroke-linecap: square"/>
   </g>
   <g id="patch_4">
    <path d="M 560.526292 282.44 
L 560.526292 7.2 
" style="fill: none; stroke: #000000; stroke-width: 0.8; stroke-linejoin: miter; stroke-linecap: square"/>
   </g>
   <g id="patch_5">
    <path d="M 44.307656 282.44 
L 560.526292 282.44 
" style="fill: none; stroke: #000000; stroke-width: 0.8; stroke-linejoin: miter; stroke-linecap: square"/>
   </g>
   <g id="patch_6">
    <path d="M 44.307656 7.2 
L 560.526292 7.2 
" style="fill: none; stroke: #000000; stroke-width: 0.8; stroke-linejoin: miter; stroke-linecap: square"/>
   </g>
   <g id="patch_7">
    <path d="M 67.77214 106007.320298 
L 113.187269 106007.320298 
L 113.187269 149.194447 
L 67.77214 149.194447 
z
" clip-path="url(#p7815477060)" style="fill: #1f4e79"/>
   </g>
   <g id="patch_8">
    <path d="M 193.925277 106007.320298 
L 239.340406 106007.320298 
L 239.340406 169.761873 
L 193.925277 169.761873 
z
" clip-path="url(#p7815477060)" style="fill: #1f4e79"/>
   </g>
   <g id="patch_9">
    <path d="M 320.078413 106007.320298 
L 365.493543 106007.320298 
L 365.493543 217.281352 
L 320.078413 217.281352 
z
" clip-path="url(#p7815477060)" style="fill: #1f4e79"/>
   </g>
   <g id="patch_10">
    <path d="M 446.23155 106007.320298 
L 491.646679 106007.320298 
L 491.646679 38.931167 
L 446.23155 38.931167 
z
" clip-path="url(#p7815477060)" style="fill: #1f4e79"/>
   </g>
   <g id="patch_11">
    <path d="M 113.187269 106007.320298 
L 158.602398 106007.320298 
L 158.602398 172.998157 
L 113.187269 172.998157 
z
" clip-path="url(#p7815477060)" style="fill: #2e7d32"/>
   </g>
   <g id="patch_12">
    <path d="M 239.340406 106007.320298 
L 284.755535 106007.320298 
L 284.755535 195.187263 
L 239.340406 195.187263 
z
" clip-path="url(#p7815477060)" style="fill: #2e7d32"/>
   </g>
   <g id="patch_13">
    <path d="M 365.493543 106007.320298 
L 410.908672 106007.320298 
L 410.908672 232.576562 
L 365.493543 232.576562 
z
" clip-path="url(#p7815477060)" style="fill: #2e7d32"/>
   </g>
   <g id="patch_14">
    <path d="M 491.646679 106007.320298 
L 537.061809 106007.320298 
L 537.061809 42.004855 
L 491.646679 42.004855 
z
" clip-path="url(#p7815477060)" style="fill: #2e7d32"/>
   </g>
   <g id="text_9">
    <!-- 18,369 -->
    <g style="fill: #1f4e79" transform="translate(77.788454 144.53824) scale(0.08 -0.08)">
     <defs>
      <path id="MicrosoftYaHei-38" d="M 306 1350 
Q 306 1769 556 2122 
Q 806 2475 1200 2625 
Q 884 2803 700 3081 
Q 516 3359 516 3684 
Q 516 4028 692 4312 
Q 869 4597 1183 4759 
Q 1497 4922 1875 4922 
Q 2256 4922 2572 4761 
Q 2888 4600 3063 4315 
Q 3238 4031 3238 3684 
Q 3238 3366 3058 3086 
Q 2878 2806 2559 2625 
Q 2953 2472 3200 2119 
Q 3447 1766 3447 1350 
Q 3447 938 3250 611 
Q 3053 284 2690 103 
Q 2328 -78 1875 -78 
Q 1425 -78 1065 103 
Q 706 284 506 612 
Q 306 941 306 1350 
z
M 906 1378 
Q 906 947 1172 687 
Q 1438 428 1878 428 
Q 2309 428 2582 692 
Q 2856 956 2856 1378 
Q 2856 1778 2579 2051 
Q 2303 2325 1878 2325 
Q 1456 2325 1181 2058 
Q 906 1791 906 1378 
z
M 1081 3634 
Q 1081 3309 1312 3076 
Q 1544 2844 1878 2844 
Q 2206 2844 2445 3078 
Q 2684 3313 2684 3634 
Q 2684 3963 2454 4191 
Q 2225 4419 1878 4419 
Q 1534 4419 1307 4195 
Q 1081 3972 1081 3634 
z
" transform="scale(0.015625)"/>
      <path id="MicrosoftYaHei-2c" d="M 1109 778 
L 575 -888 
L 131 -888 
L 519 778 
L 1109 778 
z
" transform="scale(0.015625)"/>
     </defs>
     <use xlink:href="#MicrosoftYaHei-31"/>
     <use xlink:href="#MicrosoftYaHei-38" transform="translate(58.642578 0)"/>
     <use xlink:href="#MicrosoftYaHei-2c" transform="translate(117.285156 0)"/>
     <use xlink:href="#MicrosoftYaHei-33" transform="translate(141.357422 0)"/>
     <use xlink:href="#MicrosoftYaHei-36" transform="translate(200 0)"/>
     <use xlink:href="#MicrosoftYaHei-39" transform="translate(258.642578 0)"/>
    </g>
   </g>
   <g id="text_10">
    <!-- 11,721 -->
    <g style="fill: #1f4e79" transform="translate(203.941591 165.105666) scale(0.08 -0.08)">
     <defs>
      <path id="MicrosoftYaHei-37" d="M 3422 4463 
Q 2659 3131 2223 1998 
Q 1788 866 1684 0 
L 1047 0 
Q 1163 853 1594 1947 
Q 2025 3041 2747 4300 
L 347 4300 
L 347 4841 
L 3422 4841 
L 3422 4463 
z
" transform="scale(0.015625)"/>
     </defs>
     <use xlink:href="#MicrosoftYaHei-31"/>
     <use xlink:href="#MicrosoftYaHei-31" transform="translate(58.642578 0)"/>
     <use xlink:href="#MicrosoftYaHei-2c" transform="translate(117.285156 0)"/>
     <use xlink:href="#MicrosoftYaHei-37" transform="translate(141.357422 0)"/>
     <use xlink:href="#MicrosoftYaHei-32" transform="translate(200 0)"/>
     <use xlink:href="#MicrosoftYaHei-31" transform="translate(258.642578 0)"/>
    </g>
   </g>
   <g id="text_11">
    <!-- 4,151 -->
    <g style="fill: #1f4e79" transform="translate(332.440353 212.625145) scale(0.08 -0.08)">
     <use xlink:href="#MicrosoftYaHei-34"/>
     <use xlink:href="#MicrosoftYaHei-2c" transform="translate(58.642578 0)"/>
     <use xlink:href="#MicrosoftYaHei-31" transform="translate(82.714844 0)"/>
     <use xlink:href="#MicrosoftYaHei-35" transform="translate(141.357422 0)"/>
     <use xlink:href="#MicrosoftYaHei-31" transform="translate(200 0)"/>
    </g>
   </g>
   <g id="text_12">
    <!-- 204,240 -->
    <g style="fill: #1f4e79" transform="translate(453.90224 34.27496) scale(0.08 -0.08)">
     <use xlink:href="#MicrosoftYaHei-32"/>
     <use xlink:href="#MicrosoftYaHei-30" transform="translate(58.642578 0)"/>
     <use xlink:href="#MicrosoftYaHei-34" transform="translate(117.285156 0)"/>
     <use xlink:href="#MicrosoftYaHei-2c" transform="translate(175.927734 0)"/>
     <use xlink:href="#MicrosoftYaHei-32" transform="translate(200 0)"/>
     <use xlink:href="#MicrosoftYaHei-34" transform="translate(258.642578 0)"/>
     <use xlink:href="#MicrosoftYaHei-30" transform="translate(317.285156 0)"/>
    </g>
   </g>
   <g id="text_13">
    <!-- 10,921 -->
    <g style="fill: #2e7d32" transform="translate(123.203584 168.34195) scale(0.08 -0.08)">
     <use xlink:href="#MicrosoftYaHei-31"/>
     <use xlink:href="#MicrosoftYaHei-30" transform="translate(58.642578 0)"/>
     <use xlink:href="#MicrosoftYaHei-2c" transform="translate(117.285156 0)"/>
     <use xlink:href="#MicrosoftYaHei-39" transform="translate(141.357422 0)"/>
     <use xlink:href="#MicrosoftYaHei-32" transform="translate(200 0)"/>
     <use xlink:href="#MicrosoftYaHei-31" transform="translate(258.642578 0)"/>
    </g>
   </g>
   <g id="text_14">
    <!-- 6,726 -->
    <g style="fill: #2e7d32" transform="translate(251.702345 190.531056) scale(0.08 -0.08)">
     <use xlink:href="#MicrosoftYaHei-36"/>
     <use xlink:href="#MicrosoftYaHei-2c" transform="translate(58.642578 0)"/>
     <use xlink:href="#MicrosoftYaHei-37" transform="translate(82.714844 0)"/>
     <use xlink:href="#MicrosoftYaHei-32" transform="translate(141.357422 0)"/>
     <use xlink:href="#MicrosoftYaHei-36" transform="translate(200 0)"/>
    </g>
   </g>
   <g id="text_15">
    <!-- 2,972 -->
    <g style="fill: #2e7d32" transform="translate(377.855482 227.920355) scale(0.08 -0.08)">
     <use xlink:href="#MicrosoftYaHei-32"/>
     <use xlink:href="#MicrosoftYaHei-2c" transform="translate(58.642578 0)"/>
     <use xlink:href="#MicrosoftYaHei-39" transform="translate(82.714844 0)"/>
     <use xlink:href="#MicrosoftYaHei-37" transform="translate(141.357422 0)"/>
     <use xlink:href="#MicrosoftYaHei-32" transform="translate(200 0)"/>
    </g>
   </g>
   <g id="text_16">
    <!-- 190,977 -->
    <g style="fill: #2e7d32" transform="translate(499.317369 37.348648) scale(0.08 -0.08)">
     <use xlink:href="#MicrosoftYaHei-31"/>
     <use xlink:href="#MicrosoftYaHei-39" transform="translate(58.642578 0)"/>
     <use xlink:href="#MicrosoftYaHei-30" transform="translate(117.285156 0)"/>
     <use xlink:href="#MicrosoftYaHei-2c" transform="translate(175.927734 0)"/>
     <use xlink:href="#MicrosoftYaHei-39" transform="translate(200 0)"/>
     <use xlink:href="#MicrosoftYaHei-37" transform="translate(258.642578 0)"/>
     <use xlink:href="#MicrosoftYaHei-37" transform="translate(317.285156 0)"/>
    </g>
   </g>
   <g id="text_17">
    <g id="patch_15">
     <path d="M 118.377646 216.792403 
L 153.412021 216.792403 
Q 155.412021 216.792403 155.412021 214.792403 
L 155.412021 204.312715 
Q 155.412021 202.312715 153.412021 202.312715 
L 118.377646 202.312715 
Q 116.377646 202.312715 116.377646 204.312715 
L 116.377646 214.792403 
Q 116.377646 216.792403 118.377646 216.792403 
z
" style="fill: #404040"/>
    </g>
    <!-- -40.5% -->
    <g style="fill: #ffffff" transform="translate(118.377646 212.306465) scale(0.1 -0.1)">
     <defs>
      <path id="MicrosoftYaHei-Bold-2d" d="M 2328 1497 
L 481 1497 
L 481 2209 
L 2328 2209 
L 2328 1497 
z
" transform="scale(0.015625)"/>
      <path id="MicrosoftYaHei-Bold-34" d="M 3184 4841 
L 3184 1766 
L 3869 1766 
L 3869 1031 
L 3184 1031 
L 3184 0 
L 2266 0 
L 2266 1031 
L 103 1031 
L 103 1772 
Q 775 2522 1362 3359 
Q 1950 4197 2250 4841 
L 3184 4841 
z
M 997 1766 
L 2266 1766 
L 2266 3541 
Q 2116 3259 1836 2859 
Q 1556 2459 997 1766 
z
" transform="scale(0.015625)"/>
      <path id="MicrosoftYaHei-Bold-30" d="M 244 2341 
Q 244 3597 706 4259 
Q 1169 4922 2044 4922 
Q 3713 4922 3713 2453 
Q 3713 1238 3259 577 
Q 2806 -84 1950 -84 
Q 244 -84 244 2341 
z
M 1266 2366 
Q 1266 691 1981 691 
Q 2684 691 2684 2416 
Q 2684 4147 2000 4147 
Q 1266 4147 1266 2366 
z
" transform="scale(0.015625)"/>
      <path id="MicrosoftYaHei-Bold-2e" d="M 313 453 
Q 313 688 491 838 
Q 669 988 916 988 
Q 1166 988 1337 834 
Q 1509 681 1509 453 
Q 1509 213 1337 64 
Q 1166 -84 903 -84 
Q 659 -84 486 69 
Q 313 222 313 453 
z
" transform="scale(0.015625)"/>
      <path id="MicrosoftYaHei-Bold-35" d="M 541 125 
L 541 997 
Q 1044 691 1613 691 
Q 2041 691 2283 902 
Q 2525 1113 2525 1472 
Q 2525 2225 1494 2225 
Q 1113 2225 616 2169 
L 797 4841 
L 3359 4841 
L 3359 4009 
L 1613 4009 
L 1544 2991 
Q 1803 3013 2022 3013 
Q 2731 3013 3142 2625 
Q 3553 2238 3553 1575 
Q 3553 844 3056 380 
Q 2559 -84 1706 -84 
Q 1016 -84 541 125 
z
" transform="scale(0.015625)"/>
      <path id="MicrosoftYaHei-Bold-25" d="M 297 3597 
Q 297 4191 626 4548 
Q 956 4906 1519 4906 
Q 2056 4906 2354 4581 
Q 2653 4256 2653 3684 
Q 2653 3097 2322 2744 
Q 1991 2391 1438 2391 
Q 919 2391 608 2722 
Q 297 3053 297 3597 
z
M 984 3631 
Q 984 2959 1478 2959 
Q 1981 2959 1981 3659 
Q 1981 4338 1500 4338 
Q 984 4338 984 3631 
z
M 4938 4841 
L 1791 -3 
L 1006 -3 
L 4147 4841 
L 4938 4841 
z
M 3297 1141 
Q 3297 1741 3631 2095 
Q 3966 2450 4522 2450 
Q 5059 2450 5357 2131 
Q 5656 1813 5656 1234 
Q 5656 641 5322 286 
Q 4988 -69 4438 -69 
Q 3922 -69 3609 264 
Q 3297 597 3297 1141 
z
M 3981 1175 
Q 3981 500 4478 500 
Q 4978 500 4978 1200 
Q 4978 1528 4845 1704 
Q 4713 1881 4491 1881 
Q 3981 1881 3981 1175 
z
" transform="scale(0.015625)"/>
     </defs>
     <use xlink:href="#MicrosoftYaHei-Bold-2d"/>
     <use xlink:href="#MicrosoftYaHei-Bold-34" transform="translate(43.652344 0)"/>
     <use xlink:href="#MicrosoftYaHei-Bold-30" transform="translate(105.322266 0)"/>
     <use xlink:href="#MicrosoftYaHei-Bold-2e" transform="translate(166.992188 0)"/>
     <use xlink:href="#MicrosoftYaHei-Bold-35" transform="translate(195.556641 0)"/>
     <use xlink:href="#MicrosoftYaHei-Bold-25" transform="translate(257.226562 0)"/>
    </g>
   </g>
   <g id="text_18">
    <g id="patch_16">
     <path d="M 244.530783 238.981509 
L 279.565158 238.981509 
Q 281.565158 238.981509 281.565158 236.981509 
L 281.565158 226.501821 
Q 281.565158 224.501821 279.565158 224.501821 
L 244.530783 224.501821 
Q 242.530783 224.501821 242.530783 226.501821 
L 242.530783 236.981509 
Q 242.530783 238.981509 244.530783 238.981509 
z
" style="fill: #404040"/>
    </g>
    <!-- -42.6% -->
    <g style="fill: #ffffff" transform="translate(244.530783 234.495571) scale(0.1 -0.1)">
     <defs>
      <path id="MicrosoftYaHei-Bold-32" d="M 1500 841 
L 3553 841 
L 3553 0 
L 334 0 
L 334 359 
Q 334 738 473 1050 
Q 613 1363 856 1633 
Q 1100 1903 1613 2266 
Q 2081 2616 2268 2886 
Q 2456 3156 2456 3459 
Q 2456 4113 1744 4113 
Q 1119 4113 550 3613 
L 550 4513 
Q 1184 4922 1975 4922 
Q 2700 4922 3122 4551 
Q 3544 4181 3544 3531 
Q 3544 3169 3422 2876 
Q 3300 2584 3069 2328 
Q 2838 2072 2328 1713 
Q 1838 1363 1669 1172 
Q 1500 981 1500 841 
z
" transform="scale(0.015625)"/>
      <path id="MicrosoftYaHei-Bold-36" d="M 3378 3938 
Q 3009 4147 2575 4147 
Q 2016 4147 1680 3708 
Q 1344 3269 1344 2572 
L 1363 2572 
Q 1709 3103 2391 3103 
Q 3000 3103 3358 2686 
Q 3716 2269 3716 1600 
Q 3716 869 3250 392 
Q 2784 -84 2059 -84 
Q 1228 -84 786 516 
Q 344 1116 344 2159 
Q 344 3388 917 4155 
Q 1491 4922 2513 4922 
Q 3063 4922 3378 4791 
L 3378 3938 
z
M 1378 1591 
Q 1378 1216 1565 953 
Q 1753 691 2059 691 
Q 2369 691 2547 931 
Q 2725 1172 2725 1534 
Q 2725 2350 2053 2350 
Q 1750 2350 1564 2134 
Q 1378 1919 1378 1591 
z
" transform="scale(0.015625)"/>
     </defs>
     <use xlink:href="#MicrosoftYaHei-Bold-2d"/>
     <use xlink:href="#MicrosoftYaHei-Bold-34" transform="translate(43.652344 0)"/>
     <use xlink:href="#MicrosoftYaHei-Bold-32" transform="translate(105.322266 0)"/>
     <use xlink:href="#MicrosoftYaHei-Bold-2e" transform="translate(166.992188 0)"/>
     <use xlink:href="#MicrosoftYaHei-Bold-36" transform="translate(195.556641 0)"/>
     <use xlink:href="#MicrosoftYaHei-Bold-25" transform="translate(257.226562 0)"/>
    </g>
   </g>
   <g id="text_19">
    <g id="patch_17">
     <path d="M 370.68392 276.370808 
L 405.718295 276.370808 
Q 407.718295 276.370808 407.718295 274.370808 
L 407.718295 263.891121 
Q 407.718295 261.891121 405.718295 261.891121 
L 370.68392 261.891121 
Q 368.68392 261.891121 368.68392 263.891121 
L 368.68392 274.370808 
Q 368.68392 276.370808 370.68392 276.370808 
z
" style="fill: #404040"/>
    </g>
    <!-- -28.4% -->
    <g style="fill: #ffffff" transform="translate(370.68392 271.884871) scale(0.1 -0.1)">
     <defs>
      <path id="MicrosoftYaHei-Bold-38" d="M 269 1303 
Q 269 1725 512 2053 
Q 756 2381 1219 2534 
Q 850 2719 648 3003 
Q 447 3288 447 3634 
Q 447 3997 645 4292 
Q 844 4588 1200 4755 
Q 1556 4922 1997 4922 
Q 2441 4922 2800 4758 
Q 3159 4594 3359 4298 
Q 3559 4003 3559 3647 
Q 3559 3309 3339 3018 
Q 3119 2728 2747 2559 
Q 3200 2403 3453 2076 
Q 3706 1750 3706 1313 
Q 3706 697 3228 309 
Q 2750 -78 1988 -78 
Q 1225 -78 747 309 
Q 269 697 269 1303 
z
M 1278 1394 
Q 1278 1056 1472 853 
Q 1666 650 1991 650 
Q 2303 650 2503 853 
Q 2703 1056 2703 1394 
Q 2703 1709 2500 1920 
Q 2297 2131 1991 2131 
Q 1675 2131 1476 1920 
Q 1278 1709 1278 1394 
z
M 1428 3531 
Q 1428 3266 1592 3077 
Q 1756 2888 2006 2888 
Q 2247 2888 2415 3072 
Q 2584 3256 2584 3531 
Q 2584 3806 2420 3997 
Q 2256 4188 2006 4188 
Q 1750 4188 1589 3997 
Q 1428 3806 1428 3531 
z
" transform="scale(0.015625)"/>
     </defs>
     <use xlink:href="#MicrosoftYaHei-Bold-2d"/>
     <use xlink:href="#MicrosoftYaHei-Bold-32" transform="translate(43.652344 0)"/>
     <use xlink:href="#MicrosoftYaHei-Bold-38" transform="translate(105.322266 0)"/>
     <use xlink:href="#MicrosoftYaHei-Bold-2e" transform="translate(166.992188 0)"/>
     <use xlink:href="#MicrosoftYaHei-Bold-34" transform="translate(195.556641 0)"/>
     <use xlink:href="#MicrosoftYaHei-Bold-25" transform="translate(257.226562 0)"/>
    </g>
   </g>
   <g id="text_20">
    <g id="patch_18">
     <path d="M 499.92065 85.799101 
L 528.787838 85.799101 
Q 530.787838 85.799101 530.787838 83.799101 
L 530.787838 73.319414 
Q 530.787838 71.319414 528.787838 71.319414 
L 499.92065 71.319414 
Q 497.92065 71.319414 497.92065 73.319414 
L 497.92065 83.799101 
Q 497.92065 85.799101 499.92065 85.799101 
z
" style="fill: #404040"/>
    </g>
    <!-- -6.5% -->
    <g style="fill: #ffffff" transform="translate(499.92065 81.313164) scale(0.1 -0.1)">
     <use xlink:href="#MicrosoftYaHei-Bold-2d"/>
     <use xlink:href="#MicrosoftYaHei-Bold-36" transform="translate(43.652344 0)"/>
     <use xlink:href="#MicrosoftYaHei-Bold-2e" transform="translate(105.322266 0)"/>
     <use xlink:href="#MicrosoftYaHei-Bold-35" transform="translate(133.886719 0)"/>
     <use xlink:href="#MicrosoftYaHei-Bold-25" transform="translate(195.556641 0)"/>
    </g>
   </g>
   <g id="legend_1">
    <g id="patch_19">
     <path d="M 50.607656 42.263438 
L 106.407656 42.263438 
Q 108.207656 42.263438 108.207656 40.463437 
L 108.207656 13.5 
Q 108.207656 11.7 106.407656 11.7 
L 50.607656 11.7 
Q 48.807656 11.7 48.807656 13.5 
L 48.807656 40.463437 
Q 48.807656 42.263438 50.607656 42.263438 
z
" style="fill: #ffffff; opacity: 0.95; stroke: #cccccc; stroke-linejoin: miter"/>
    </g>
    <g id="patch_20">
     <path d="M 52.407656 22.494375 
L 70.407656 22.494375 
L 70.407656 16.194375 
L 52.407656 16.194375 
z
" style="fill: #1f4e79"/>
    </g>
    <g id="text_21">
     <!-- 启用前 -->
     <g transform="translate(77.607656 22.494375) scale(0.09 -0.09)">
      <defs>
       <path id="MicrosoftYaHei-542f" d="M 2781 5166 
L 3225 5391 
Q 3469 5006 3691 4603 
L 5938 4603 
L 5938 2516 
L 5450 2516 
L 5450 2747 
L 1288 2747 
L 1288 2728 
Q 1288 209 413 -878 
Q 244 -678 50 -472 
Q 788 459 788 2728 
L 788 4603 
L 3119 4603 
Q 2966 4881 2781 5166 
z
M 5869 1822 
L 5869 -847 
L 5381 -847 
L 5381 -441 
L 2225 -441 
L 2225 -847 
L 1738 -847 
L 1738 1822 
L 5869 1822 
z
M 5381 1384 
L 2225 1384 
L 2225 -9 
L 5381 -9 
L 5381 1384 
z
M 1288 4166 
L 1288 3184 
L 5450 3184 
L 5450 4166 
L 1288 4166 
z
" transform="scale(0.015625)"/>
       <path id="MicrosoftYaHei-7528" d="M 3088 -734 
L 3088 1253 
L 1269 1253 
Q 1163 -47 513 -903 
Q 350 -697 144 -472 
Q 550 103 694 803 
Q 831 1478 831 2716 
L 831 4947 
L 5925 4947 
L 5925 -22 
Q 5925 -766 5219 -766 
Q 4788 -766 4250 -747 
Q 4219 -541 4156 -228 
Q 4700 -266 5038 -266 
Q 5425 -266 5425 103 
L 5425 1253 
L 3588 1253 
L 3588 -734 
L 3088 -734 
z
M 3588 1703 
L 5425 1703 
L 5425 2872 
L 3588 2872 
L 3588 1703 
z
M 5425 4484 
L 3588 4484 
L 3588 3322 
L 5425 3322 
L 5425 4484 
z
M 1303 1703 
L 3088 1703 
L 3088 2872 
L 1331 2872 
Q 1350 2266 1303 1703 
z
M 1331 4484 
L 1331 3322 
L 3088 3322 
L 3088 4484 
L 1331 4484 
z
" transform="scale(0.015625)"/>
       <path id="MicrosoftYaHei-524d" d="M 1038 -841 
L 563 -841 
L 563 3322 
L 3300 3322 
L 3300 -172 
Q 3300 -784 2669 -772 
Q 2406 -772 1950 -759 
Q 1913 -516 1856 -297 
Q 2238 -328 2563 -328 
Q 2825 -334 2825 -72 
L 2825 722 
L 1038 722 
L 1038 -841 
z
M 150 4372 
L 2169 4372 
Q 1963 4697 1644 5078 
L 2038 5347 
Q 2425 4916 2663 4578 
L 2353 4372 
L 4063 4372 
L 3813 4509 
Q 4144 4916 4388 5359 
L 4863 5084 
Q 4575 4691 4284 4372 
L 6263 4372 
L 6263 3934 
L 150 3934 
L 150 4372 
z
M 5331 3522 
L 5819 3522 
L 5819 28 
Q 5819 -741 5094 -747 
Q 4763 -753 4269 -741 
Q 4238 -484 4181 -216 
Q 4644 -266 4931 -266 
Q 5331 -266 5331 141 
L 5331 3522 
z
M 4044 3222 
L 4519 3222 
L 4519 409 
L 4044 409 
L 4044 3222 
z
M 2825 2897 
L 1038 2897 
L 1038 2228 
L 2825 2228 
L 2825 2897 
z
M 1038 1141 
L 2825 1141 
L 2825 1809 
L 1038 1809 
L 1038 1141 
z
" transform="scale(0.015625)"/>
      </defs>
      <use xlink:href="#MicrosoftYaHei-542f"/>
      <use xlink:href="#MicrosoftYaHei-7528" transform="translate(100 0)"/>
      <use xlink:href="#MicrosoftYaHei-524d" transform="translate(200 0)"/>
     </g>
    </g>
    <g id="patch_21">
     <path d="M 52.407656 36.426094 
L 70.407656 36.426094 
L 70.407656 30.126094 
L 52.407656 30.126094 
z
" style="fill: #2e7d32"/>
    </g>
    <g id="text_22">
     <!-- 启用后 -->
     <g transform="translate(77.607656 36.426094) scale(0.09 -0.09)">
      <defs>
       <path id="MicrosoftYaHei-540e" d="M 1888 1984 
L 5688 1984 
L 5688 -828 
L 5188 -828 
L 5188 -403 
L 2388 -403 
L 2388 -828 
L 1888 -828 
L 1888 1984 
z
M 1313 2991 
Q 1313 1272 1138 672 
Q 963 -16 394 -847 
Q 250 -634 50 -409 
Q 494 222 650 859 
Q 806 1472 806 2659 
L 806 4766 
Q 3544 4853 5631 5141 
L 5931 4622 
Q 3344 4359 1313 4284 
L 1313 3459 
L 6263 3459 
L 6263 2991 
L 1313 2991 
z
M 5188 1528 
L 2388 1528 
L 2388 41 
L 5188 41 
L 5188 1528 
z
" transform="scale(0.015625)"/>
      </defs>
      <use xlink:href="#MicrosoftYaHei-542f"/>
      <use xlink:href="#MicrosoftYaHei-7528" transform="translate(100 0)"/>
      <use xlink:href="#MicrosoftYaHei-540e" transform="translate(200 0)"/>
     </g>
    </g>
   </g>
  </g>
 </g>
 <defs>
  <clipPath id="p7815477060">
   <rect x="44.307656" y="7.2" width="516.218636" height="275.24"/>
  </clipPath>
 </defs>
</svg>
